<mxfile host="app.diagrams.net" modified="2024-04-25T09:48:42.966Z" agent="Mozilla/5.0 (Windows NT 10.0; Win64; x64) AppleWebKit/537.36 (KHTML, like Gecko) Chrome/124.0.0.0 Safari/537.36" etag="-qxluNxbMq78dOSmkNY1" version="24.3.0" type="github">
  <diagram name="Page-1" id="WuEN5eNVV59FjkqMWe7a">
    <mxGraphModel dx="1793" dy="943" grid="1" gridSize="10" guides="1" tooltips="1" connect="1" arrows="1" fold="1" page="1" pageScale="1" pageWidth="850" pageHeight="1100" math="0" shadow="0">
      <root>
        <mxCell id="0" />
        <mxCell id="1" parent="0" />
        <mxCell id="FniSXFft9KV9XP_-7czF-8" value="" style="edgeStyle=orthogonalEdgeStyle;rounded=0;orthogonalLoop=1;jettySize=auto;html=1;entryX=0;entryY=0.5;entryDx=0;entryDy=0;entryPerimeter=0;" parent="1" source="FniSXFft9KV9XP_-7czF-1" target="FniSXFft9KV9XP_-7czF-9" edge="1">
          <mxGeometry relative="1" as="geometry" />
        </mxCell>
        <mxCell id="FniSXFft9KV9XP_-7czF-13" style="edgeStyle=orthogonalEdgeStyle;rounded=0;orthogonalLoop=1;jettySize=auto;html=1;" parent="1" source="FniSXFft9KV9XP_-7czF-1" target="FniSXFft9KV9XP_-7czF-2" edge="1">
          <mxGeometry relative="1" as="geometry" />
        </mxCell>
        <mxCell id="FniSXFft9KV9XP_-7czF-15" style="edgeStyle=orthogonalEdgeStyle;rounded=0;orthogonalLoop=1;jettySize=auto;html=1;entryX=0;entryY=0.5;entryDx=0;entryDy=0;entryPerimeter=0;" parent="1" source="FniSXFft9KV9XP_-7czF-1" target="FniSXFft9KV9XP_-7czF-14" edge="1">
          <mxGeometry relative="1" as="geometry" />
        </mxCell>
        <mxCell id="FniSXFft9KV9XP_-7czF-1" value="" style="html=1;strokeWidth=2;outlineConnect=0;dashed=0;align=center;fontSize=8;fillColor=#c0f5a9;verticalLabelPosition=bottom;verticalAlign=top;shape=mxgraph.eip.recipient_list;" parent="1" vertex="1">
          <mxGeometry x="910" y="280" width="150" height="90" as="geometry" />
        </mxCell>
        <mxCell id="FniSXFft9KV9XP_-7czF-28" style="edgeStyle=orthogonalEdgeStyle;rounded=0;orthogonalLoop=1;jettySize=auto;html=1;entryX=0;entryY=0.5;entryDx=0;entryDy=0;" parent="1" source="FniSXFft9KV9XP_-7czF-2" target="FniSXFft9KV9XP_-7czF-23" edge="1">
          <mxGeometry relative="1" as="geometry" />
        </mxCell>
        <mxCell id="FniSXFft9KV9XP_-7czF-2" value="" style="html=1;strokeWidth=2;outlineConnect=0;dashed=0;align=center;fontSize=8;shape=mxgraph.eip.message_translator;fillColor=#c0f5a9;verticalLabelPosition=bottom;verticalAlign=top;" parent="1" vertex="1">
          <mxGeometry x="1200" y="210" width="150" height="90" as="geometry" />
        </mxCell>
        <mxCell id="FniSXFft9KV9XP_-7czF-26" style="edgeStyle=orthogonalEdgeStyle;rounded=0;orthogonalLoop=1;jettySize=auto;html=1;entryX=0;entryY=0.5;entryDx=0;entryDy=0;" parent="1" source="FniSXFft9KV9XP_-7czF-9" target="FniSXFft9KV9XP_-7czF-22" edge="1">
          <mxGeometry relative="1" as="geometry" />
        </mxCell>
        <mxCell id="FniSXFft9KV9XP_-7czF-59" style="edgeStyle=orthogonalEdgeStyle;rounded=0;orthogonalLoop=1;jettySize=auto;html=1;entryX=0;entryY=0.5;entryDx=0;entryDy=0;" parent="1" source="FniSXFft9KV9XP_-7czF-9" target="FniSXFft9KV9XP_-7czF-21" edge="1">
          <mxGeometry relative="1" as="geometry" />
        </mxCell>
        <mxCell id="FniSXFft9KV9XP_-7czF-9" value="" style="html=1;strokeWidth=2;outlineConnect=0;dashed=0;align=center;fontSize=8;shape=mxgraph.eip.message_translator;fillColor=#c0f5a9;verticalLabelPosition=bottom;verticalAlign=top;" parent="1" vertex="1">
          <mxGeometry x="1200" y="330" width="150" height="90" as="geometry" />
        </mxCell>
        <mxCell id="FniSXFft9KV9XP_-7czF-19" style="edgeStyle=orthogonalEdgeStyle;rounded=0;orthogonalLoop=1;jettySize=auto;html=1;" parent="1" source="FniSXFft9KV9XP_-7czF-14" target="FniSXFft9KV9XP_-7czF-18" edge="1">
          <mxGeometry relative="1" as="geometry" />
        </mxCell>
        <mxCell id="FniSXFft9KV9XP_-7czF-14" value="" style="html=1;strokeWidth=2;outlineConnect=0;dashed=0;align=center;fontSize=8;shape=mxgraph.eip.message_translator;fillColor=#c0f5a9;verticalLabelPosition=bottom;verticalAlign=top;" parent="1" vertex="1">
          <mxGeometry x="1200" y="90" width="150" height="90" as="geometry" />
        </mxCell>
        <mxCell id="FniSXFft9KV9XP_-7czF-18" value="&lt;div style=&quot;font-size: 32px;&quot;&gt;KLM&lt;/div&gt;" style="text;html=1;align=center;verticalAlign=middle;whiteSpace=wrap;rounded=0;fontSize=32;" parent="1" vertex="1">
          <mxGeometry x="1410" y="120" width="60" height="30" as="geometry" />
        </mxCell>
        <mxCell id="FniSXFft9KV9XP_-7czF-21" value="British Airways" style="text;html=1;align=center;verticalAlign=middle;whiteSpace=wrap;rounded=0;fontSize=32;" parent="1" vertex="1">
          <mxGeometry x="1410" y="470" width="220" height="30" as="geometry" />
        </mxCell>
        <mxCell id="FniSXFft9KV9XP_-7czF-22" value="South West" style="text;html=1;align=center;verticalAlign=middle;whiteSpace=wrap;rounded=0;fontSize=32;" parent="1" vertex="1">
          <mxGeometry x="1410" y="360" width="170" height="30" as="geometry" />
        </mxCell>
        <mxCell id="FniSXFft9KV9XP_-7czF-23" value="SAS" style="text;html=1;align=center;verticalAlign=middle;whiteSpace=wrap;rounded=0;fontSize=32;" parent="1" vertex="1">
          <mxGeometry x="1410" y="240" width="60" height="30" as="geometry" />
        </mxCell>
        <mxCell id="FniSXFft9KV9XP_-7czF-34" style="edgeStyle=orthogonalEdgeStyle;rounded=0;orthogonalLoop=1;jettySize=auto;html=1;" parent="1" source="FniSXFft9KV9XP_-7czF-32" target="FniSXFft9KV9XP_-7czF-33" edge="1">
          <mxGeometry relative="1" as="geometry" />
        </mxCell>
        <mxCell id="FniSXFft9KV9XP_-7czF-32" value="" style="aspect=fixed;sketch=0;html=1;dashed=0;whitespace=wrap;fillColor=#2875E2;strokeColor=#ffffff;points=[[0.005,0.63,0],[0.1,0.2,0],[0.9,0.2,0],[0.5,0,0],[0.995,0.63,0],[0.72,0.99,0],[0.5,1,0],[0.28,0.99,0]];shape=mxgraph.kubernetes.icon2;kubernetesLabel=1;prIcon=api" parent="1" vertex="1">
          <mxGeometry x="50" y="291" width="50" height="48" as="geometry" />
        </mxCell>
        <mxCell id="FniSXFft9KV9XP_-7czF-36" style="edgeStyle=orthogonalEdgeStyle;rounded=0;orthogonalLoop=1;jettySize=auto;html=1;" parent="1" source="FniSXFft9KV9XP_-7czF-33" target="FniSXFft9KV9XP_-7czF-35" edge="1">
          <mxGeometry relative="1" as="geometry" />
        </mxCell>
        <mxCell id="FniSXFft9KV9XP_-7czF-33" value="" style="html=1;strokeWidth=2;outlineConnect=0;dashed=0;align=center;fontSize=8;fillColor=#c0f5a9;verticalLabelPosition=bottom;verticalAlign=top;shape=mxgraph.eip.content_filter;" parent="1" vertex="1">
          <mxGeometry x="170" y="270" width="150" height="90" as="geometry" />
        </mxCell>
        <mxCell id="FniSXFft9KV9XP_-7czF-41" style="edgeStyle=orthogonalEdgeStyle;rounded=0;orthogonalLoop=1;jettySize=auto;html=1;" parent="1" source="FniSXFft9KV9XP_-7czF-35" target="FniSXFft9KV9XP_-7czF-38" edge="1">
          <mxGeometry relative="1" as="geometry" />
        </mxCell>
        <mxCell id="FniSXFft9KV9XP_-7czF-35" value="" style="html=1;strokeWidth=2;outlineConnect=0;dashed=0;align=center;fontSize=8;fillColor=#c0f5a9;verticalLabelPosition=bottom;verticalAlign=top;shape=mxgraph.eip.recipient_list;" parent="1" vertex="1">
          <mxGeometry x="360" y="270" width="150" height="90" as="geometry" />
        </mxCell>
        <mxCell id="FniSXFft9KV9XP_-7czF-51" style="edgeStyle=orthogonalEdgeStyle;rounded=0;orthogonalLoop=1;jettySize=auto;html=1;entryX=0;entryY=0.5;entryDx=0;entryDy=0;" parent="1" source="FniSXFft9KV9XP_-7czF-37" target="FniSXFft9KV9XP_-7czF-45" edge="1">
          <mxGeometry relative="1" as="geometry" />
        </mxCell>
        <mxCell id="FniSXFft9KV9XP_-7czF-37" value="" style="html=1;strokeWidth=2;outlineConnect=0;dashed=0;align=center;fontSize=8;fillColor=#c0f5a9;verticalLabelPosition=bottom;verticalAlign=top;shape=mxgraph.eip.content_filter;" parent="1" vertex="1">
          <mxGeometry x="570" y="390" width="150" height="90" as="geometry" />
        </mxCell>
        <mxCell id="FniSXFft9KV9XP_-7czF-53" style="edgeStyle=orthogonalEdgeStyle;rounded=0;orthogonalLoop=1;jettySize=auto;html=1;entryX=0;entryY=0.5;entryDx=0;entryDy=0;" parent="1" source="FniSXFft9KV9XP_-7czF-38" target="FniSXFft9KV9XP_-7czF-44" edge="1">
          <mxGeometry relative="1" as="geometry" />
        </mxCell>
        <mxCell id="FniSXFft9KV9XP_-7czF-38" value="" style="html=1;strokeWidth=2;outlineConnect=0;dashed=0;align=center;fontSize=8;fillColor=#c0f5a9;verticalLabelPosition=bottom;verticalAlign=top;shape=mxgraph.eip.content_filter;" parent="1" vertex="1">
          <mxGeometry x="570" y="270" width="150" height="90" as="geometry" />
        </mxCell>
        <mxCell id="FniSXFft9KV9XP_-7czF-54" style="edgeStyle=orthogonalEdgeStyle;rounded=0;orthogonalLoop=1;jettySize=auto;html=1;entryX=0;entryY=0.5;entryDx=0;entryDy=0;" parent="1" source="FniSXFft9KV9XP_-7czF-39" target="FniSXFft9KV9XP_-7czF-43" edge="1">
          <mxGeometry relative="1" as="geometry" />
        </mxCell>
        <mxCell id="FniSXFft9KV9XP_-7czF-39" value="" style="html=1;strokeWidth=2;outlineConnect=0;dashed=0;align=center;fontSize=8;fillColor=#c0f5a9;verticalLabelPosition=bottom;verticalAlign=top;shape=mxgraph.eip.content_filter;" parent="1" vertex="1">
          <mxGeometry x="570" y="150" width="150" height="90" as="geometry" />
        </mxCell>
        <mxCell id="FniSXFft9KV9XP_-7czF-40" style="edgeStyle=orthogonalEdgeStyle;rounded=0;orthogonalLoop=1;jettySize=auto;html=1;entryX=0;entryY=0.5;entryDx=0;entryDy=0;entryPerimeter=0;" parent="1" source="FniSXFft9KV9XP_-7czF-35" target="FniSXFft9KV9XP_-7czF-39" edge="1">
          <mxGeometry relative="1" as="geometry" />
        </mxCell>
        <mxCell id="FniSXFft9KV9XP_-7czF-42" style="edgeStyle=orthogonalEdgeStyle;rounded=0;orthogonalLoop=1;jettySize=auto;html=1;entryX=0;entryY=0.5;entryDx=0;entryDy=0;entryPerimeter=0;" parent="1" source="FniSXFft9KV9XP_-7czF-35" target="FniSXFft9KV9XP_-7czF-37" edge="1">
          <mxGeometry relative="1" as="geometry" />
        </mxCell>
        <mxCell id="FniSXFft9KV9XP_-7czF-43" value="&lt;div&gt;ATCC&lt;/div&gt;" style="text;html=1;align=center;verticalAlign=middle;whiteSpace=wrap;rounded=0;fontSize=32;" parent="1" vertex="1">
          <mxGeometry x="770" y="180" width="60" height="30" as="geometry" />
        </mxCell>
        <mxCell id="FniSXFft9KV9XP_-7czF-44" value="AIC" style="text;html=1;align=center;verticalAlign=middle;whiteSpace=wrap;rounded=0;fontSize=32;" parent="1" vertex="1">
          <mxGeometry x="770" y="300" width="60" height="30" as="geometry" />
        </mxCell>
        <mxCell id="FniSXFft9KV9XP_-7czF-45" value="AC" style="text;html=1;align=center;verticalAlign=middle;whiteSpace=wrap;rounded=0;fontSize=32;" parent="1" vertex="1">
          <mxGeometry x="770" y="420" width="60" height="30" as="geometry" />
        </mxCell>
        <mxCell id="FniSXFft9KV9XP_-7czF-58" style="edgeStyle=orthogonalEdgeStyle;rounded=0;orthogonalLoop=1;jettySize=auto;html=1;entryX=0;entryY=0.5;entryDx=0;entryDy=0;entryPerimeter=0;" parent="1" source="FniSXFft9KV9XP_-7czF-45" target="FniSXFft9KV9XP_-7czF-1" edge="1">
          <mxGeometry relative="1" as="geometry" />
        </mxCell>
      </root>
    </mxGraphModel>
  </diagram>
</mxfile>
